<svg width="700" height="340" viewBox="0 0 700 340" fill="none" xmlns="http://www.w3.org/2000/svg">
<rect x="30" y="30" width="170" height="50" rx="8" fill="#E0E7FF" stroke="#6366F1" stroke-width="2"/>
<text x="115" y="60" text-anchor="middle" font-size="15" font-family="Arial" fill="#3730A3">ComponentTypes.js</text>
<rect x="30" y="110" width="170" height="50" rx="8" fill="#F3F4F6" stroke="#3B82F6" stroke-width="2"/>
<text x="115" y="140" text-anchor="middle" font-size="15" font-family="Arial" fill="#1E293B">Sidebar</text>
<rect x="260" y="110" width="170" height="50" rx="8" fill="#DBEAFE" stroke="#2563EB" stroke-width="2"/>
<text x="345" y="140" text-anchor="middle" font-size="15" font-family="Arial" fill="#2563EB">DraggableComponent</text>
<rect x="500" y="110" width="170" height="50" rx="8" fill="#F1F5F9" stroke="#6366F1" stroke-width="2"/>
<text x="585" y="140" text-anchor="middle" font-size="15" font-family="Arial" fill="#6366F1">Canvas</text>
<rect x="500" y="200" width="170" height="50" rx="8" fill="#DCFCE7" stroke="#22C55E" stroke-width="2"/>
<text x="585" y="230" text-anchor="middle" font-size="15" font-family="Arial" fill="#166534">DroppedComponent</text>
<rect x="500" y="280" width="170" height="50" rx="8" fill="#FEF9C3" stroke="#EAB308" stroke-width="2"/>
<text x="585" y="310" text-anchor="middle" font-size="15" font-family="Arial" fill="#CA8A04">EditorContext</text>
<!-- Arrows -->
<path d="M115,80 L115,110" stroke="#6366F1" stroke-width="2" marker-end="url(#arrow)"/>
<path d="M200,135 L260,135" stroke="#3B82F6" stroke-width="2" marker-end="url(#arrow)"/>
<path d="M430,135 L500,135" stroke="#2563EB" stroke-width="2" marker-end="url(#arrow)"/>
<path d="M585,160 L585,200" stroke="#6366F1" stroke-width="2" marker-end="url(#arrow)"/>
<path d="M585,250 L585,280" stroke="#A16207" stroke-width="2" marker-end="url(#arrow)"/>
<defs>
  <marker id="arrow" markerWidth="10" markerHeight="10" refX="8" refY="3" orient="auto" markerUnits="strokeWidth">
    <path d="M0,0 L0,6 L9,3 z" fill="#6366F1"/>
  </marker>
</defs>
</svg>