<svg width="700" height="280" viewBox="0 0 700 280" fill="none" xmlns="http://www.w3.org/2000/svg">
<rect x="30" y="40" width="160" height="200" rx="10" fill="#F3F4F6" stroke="#3B82F6" stroke-width="2"/>
<text x="110" y="65" text-anchor="middle" font-size="16" font-family="Arial" fill="#1E293B">Sidebar</text>
<rect x="210" y="20" width="480" height="240" rx="10" fill="#F1F5F9" stroke="#6366F1" stroke-width="2"/>
<text x="450" y="45" text-anchor="middle" font-size="16" font-family="Arial" fill="#1E293B">Canvas (Drop Target)</text>
<rect x="250" y="90" width="140" height="60" rx="8" fill="#DCFCE7" stroke="#22C55E" stroke-width="2"/>
<text x="320" y="120" text-anchor="middle" font-size="14" font-family="Arial" fill="#166534">DroppedComponent</text>
<rect x="440" y="180" width="200" height="40" rx="8" fill="#FEF9C3" stroke="#EAB308" stroke-width="2"/>
<text x="540" y="205" text-anchor="middle" font-size="14" font-family="Arial" fill="#A16207">EditorContext</text>
<rect x="70" y="100" width="80" height="30" rx="5" fill="#DBEAFE" stroke="#2563EB" stroke-width="1.5"/>
<text x="110" y="120" text-anchor="middle" font-size="12" font-family="Arial" fill="#2563EB">DraggableComponent</text>
<rect x="70" y="150" width="80" height="30" rx="5" fill="#DBEAFE" stroke="#2563EB" stroke-width="1.5"/>
<text x="110" y="170" text-anchor="middle" font-size="12" font-family="Arial" fill="#2563EB">DraggableComponent</text>
<path d="M150,115 Q220,110 250,120" stroke="#3B82F6" stroke-width="2" fill="none" marker-end="url(#arrow)"/>
<path d="M150,165 Q220,160 250,120" stroke="#3B82F6" stroke-width="2" fill="none" marker-end="url(#arrow)"/>
<path d="M390,120 Q440,120 540,200" stroke="#A16207" stroke-width="2" fill="none" marker-end="url(#arrow)"/>
<defs>
  <marker id="arrow" markerWidth="10" markerHeight="10" refX="8" refY="3" orient="auto" markerUnits="strokeWidth">
    <path d="M0,0 L0,6 L9,3 z" fill="#3B82F6"/>
  </marker>
</defs>
</svg>